<mxfile host="app.diagrams.net" modified="2023-08-07T16:43:36.544Z" agent="Mozilla/5.0 (Macintosh; Intel Mac OS X 10_15_7) AppleWebKit/605.1.15 (KHTML, like Gecko) Version/16.5.2 Safari/605.1.15" version="21.6.6" etag="II3vD5-QTsrlzO2kaGsE" type="github">
  <diagram name="Page-1" id="naPcVPhQgRCDoNLOZa12">
    <mxGraphModel>
      <root>
        <mxCell id="0" />
        <mxCell id="1" parent="0" />
      </root>
    </mxGraphModel>
  </diagram>
</mxfile>
